<?xml version="1.0" encoding="UTF-8"?>
<svg width="700pt" height="700pt" version="1.1" viewBox="0 0 700 700" xmlns="http://www.w3.org/2000/svg">
 <path d="m350 78.75c-53.375 0-104.56 21.203-142.3 58.945-37.742 37.742-58.945 88.93-58.945 142.3s21.203 104.56 58.945 142.3c37.742 37.742 88.93 58.945 142.3 58.945s104.56-21.203 142.3-58.945c37.742-37.742 58.945-88.93 58.945-142.3s-21.203-104.56-58.945-142.3c-37.742-37.742-88.93-58.945-142.3-58.945zm0 98.215c27.328 0 53.535 10.855 72.859 30.176 19.32 19.324 30.176 45.531 30.176 72.859s-10.855 53.535-30.176 72.859c-19.324 19.32-45.531 30.176-72.859 30.176s-53.535-10.855-72.859-30.176c-19.32-19.324-30.176-45.531-30.176-72.859s10.855-53.535 30.176-72.859c19.324-19.32 45.531-30.176 72.859-30.176z"/>
</svg>
